<?xml version="1.0" standalone="no"?>
<!DOCTYPE svg PUBLIC "-//W3C//DTD SVG 20010904//EN"
 "http://www.w3.org/TR/2001/REC-SVG-20010904/DTD/svg10.dtd">
<svg version="1.0" xmlns="http://www.w3.org/2000/svg"
 width="500.000000pt" height="500.000000pt" viewBox="0 0 500.000000 500.000000"
 preserveAspectRatio="xMidYMid meet">

<g transform="translate(0.000000,500.000000) scale(0.100000,-0.100000)"
fill="#000000" stroke="none">
<path d="M200 3505 c-63 -52 -116 -103 -118 -113 -4 -25 45 -109 74 -129 23
-15 24 -19 24 -159 0 -193 20 -254 106 -312 19 -13 41 -21 49 -18 15 5 222
172 230 185 2 5 -4 20 -15 34 l-21 26 53 39 c66 49 117 104 153 161 37 59 51
44 37 -41 -6 -35 -15 -100 -21 -145 -13 -108 -35 -147 -114 -207 -20 -16 -37
-33 -37 -38 0 -17 81 -128 93 -128 40 0 245 163 288 230 44 69 70 66 116 -10
18 -30 47 -65 65 -77 50 -35 84 -30 153 22 33 25 63 45 66 45 4 0 18 -15 32
-32 13 -18 41 -42 61 -52 l35 -19 38 29 c21 15 63 50 94 76 30 26 61 48 68 48
6 0 42 -31 79 -70 90 -94 108 -94 212 -5 41 36 81 65 87 65 7 0 21 -17 32 -39
21 -41 68 -86 101 -96 16 -5 47 15 135 85 63 51 115 97 115 103 -1 7 -23 41
-50 77 l-50 65 2 95 c3 89 4 95 25 98 14 2 27 -5 38 -21 9 -14 25 -27 35 -30
19 -5 20 -15 20 -159 0 -139 2 -157 24 -203 23 -52 69 -98 107 -110 15 -5 38
8 95 55 41 33 81 63 89 66 8 4 23 -9 39 -34 26 -42 65 -77 97 -87 13 -4 32 4
58 24 21 17 44 31 50 31 5 0 26 -14 46 -31 l36 -32 39 18 c35 16 48 17 109 6
132 -21 144 -19 222 52 39 34 74 62 80 62 5 0 26 -22 47 -50 21 -27 54 -59 74
-69 l36 -20 62 52 c34 29 66 52 71 52 5 0 32 -18 61 -40 29 -22 68 -43 86 -46
25 -5 44 -21 78 -65 25 -33 50 -59 56 -59 9 0 42 21 130 81 52 37 127 110 160
157 36 53 71 55 97 7 46 -86 92 -125 147 -125 18 0 59 26 130 81 57 45 104 85
104 88 0 9 -60 123 -72 139 -8 9 -14 10 -25 1 -9 -8 -17 -9 -24 -2 -6 6 -35
76 -64 157 -64 173 -88 224 -132 275 -43 51 -80 65 -153 58 -67 -6 -145 -48
-218 -117 -23 -22 -46 -40 -52 -40 -5 0 -16 13 -24 28 -25 49 -100 109 -159
128 l-55 17 -51 -42 -51 -43 -52 46 c-29 25 -57 46 -62 46 -6 0 -23 -12 -39
-27 l-29 -28 -22 28 c-23 28 -24 29 -55 13 -26 -14 -49 -15 -136 -10 -78 5
-108 4 -120 -6 -12 -10 -25 -9 -71 5 -62 19 -54 22 -136 -54 l-37 -35 -60 57
c-33 31 -64 57 -69 57 -5 0 -47 -31 -93 -70 -46 -38 -87 -70 -92 -70 -4 0 -11
11 -16 23 -10 26 -60 80 -97 103 -20 14 -25 14 -48 -1 -24 -16 -28 -16 -52 0
-19 12 -29 14 -39 5 -31 -26 -77 -29 -206 -13 -148 17 -177 14 -243 -27 -25
-17 -52 -30 -57 -30 -6 0 -33 18 -59 40 -26 22 -51 40 -55 40 -9 0 -81 -57
-144 -113 l-43 -39 -52 50 c-61 59 -102 82 -150 82 -30 0 -51 -14 -142 -91
-96 -83 -105 -93 -99 -118 11 -45 59 -126 75 -126 12 0 16 -17 18 -77 2 -52
-1 -78 -8 -78 -13 0 -26 30 -79 178 -48 135 -90 218 -132 261 -41 41 -66 51
-129 51 -55 0 -136 -38 -208 -97 -24 -20 -47 -32 -51 -27 -4 5 -20 26 -35 48
-28 38 -81 68 -142 81 -27 5 -38 0 -78 -34 -26 -23 -51 -41 -55 -41 -4 0 -31
20 -60 45 -29 25 -56 45 -59 44 -4 0 -59 -42 -122 -94z m150 -20 c12 -13 28
-44 34 -69 l11 -44 82 70 c81 68 83 70 116 59 92 -31 124 -143 72 -248 -44
-88 -144 -165 -234 -179 -44 -7 -44 -6 -35 -54 6 -27 11 -31 30 -27 13 2 29
-1 34 -8 8 -10 -8 -28 -65 -75 -85 -69 -89 -69 -124 4 -19 38 -21 61 -21 222
0 222 -1 226 -49 222 -23 -2 -36 1 -36 9 0 11 143 141 156 143 3 0 16 -11 29
-25z m723 -4 c38 -34 85 -130 147 -304 50 -140 75 -180 115 -187 15 -3 30 -10
32 -16 4 -12 -136 -124 -154 -124 -21 0 -61 59 -89 130 l-27 70 -22 -20 c-16
-15 -35 -20 -77 -20 l-55 0 -12 -40 c-15 -52 -59 -101 -149 -168 -52 -38 -77
-51 -84 -44 -8 8 3 26 34 61 54 60 84 146 94 266 9 116 44 182 124 238 l25 18
-24 20 c-29 24 -64 24 -118 0 -34 -16 -42 -17 -47 -6 -7 19 87 103 149 131 67
32 97 30 138 -5z m536 -48 c42 -43 106 -120 141 -171 l65 -93 3 82 c3 92 -5
110 -52 106 -19 -1 -31 3 -31 10 0 7 35 42 79 78 76 64 79 65 98 48 48 -43 53
-67 58 -288 l5 -210 27 2 c15 1 29 -5 32 -12 7 -19 -137 -137 -157 -129 -19 7
-74 78 -203 259 l-99 140 -3 -119 c-1 -66 0 -126 3 -134 3 -9 14 -13 30 -10
14 3 29 0 35 -7 7 -9 -10 -29 -65 -75 -83 -68 -89 -68 -123 -6 -14 25 -18 69
-22 233 -5 219 -10 236 -54 215 -20 -9 -25 -8 -30 5 -8 19 -13 13 82 92 41 34
81 61 89 61 9 0 50 -35 92 -77z m811 63 c36 0 76 2 90 4 41 8 29 -14 -41 -74
-62 -52 -70 -56 -118 -56 l-51 0 2 -187 3 -188 30 0 c48 -1 37 -27 -39 -89
-67 -55 -69 -56 -89 -39 -42 38 -47 71 -47 303 l0 222 -72 -4 c-40 -2 -79 -6
-87 -8 -8 -3 -16 2 -18 10 -2 9 27 36 75 68 l77 54 110 -8 c61 -4 139 -8 175
-8z m228 -8 c34 -37 42 -73 42 -189 l0 -109 90 0 90 0 0 68 c0 80 -9 97 -51
97 -18 0 -34 5 -36 11 -2 6 33 41 77 78 80 67 82 68 102 49 42 -37 48 -72 48
-270 0 -219 3 -237 36 -230 13 2 29 -1 34 -8 8 -10 -8 -28 -65 -75 l-75 -61
-25 27 c-33 35 -45 82 -45 173 0 71 -1 73 -18 58 -14 -13 -38 -17 -92 -17
l-73 0 7 -42 c9 -53 14 -61 37 -55 10 3 23 -1 29 -8 8 -10 -7 -27 -65 -75
l-75 -61 -25 27 c-38 41 -45 84 -45 279 0 99 -4 186 -9 193 -5 8 -22 12 -42
10 -22 -2 -34 1 -34 10 0 11 141 139 156 141 3 1 15 -9 27 -21z m603 -9 l28
-30 40 32 c39 31 42 32 98 23 32 -5 84 -8 116 -7 31 0 57 -2 57 -6 0 -16 -153
-131 -174 -131 -11 0 -47 6 -78 14 l-58 13 0 -78 0 -79 120 0 c110 0 120 -2
120 -18 0 -10 -18 -33 -39 -50 -37 -30 -45 -32 -120 -32 l-81 0 0 -64 0 -63
83 -6 c46 -3 101 -1 123 4 96 25 95 13 -7 -78 l-84 -74 -70 8 c-80 8 -151 10
-180 3 -17 -4 -19 -1 -16 20 2 14 6 118 8 232 4 234 1 251 -50 246 -21 -2 -32
1 -32 10 0 13 143 140 158 141 5 1 22 -13 38 -30z m498 7 c12 -13 28 -42 34
-64 l12 -40 60 50 c99 82 98 82 137 62 130 -65 142 -174 34 -292 l-54 -57 28
-56 c36 -70 93 -123 125 -115 46 12 36 -22 -22 -74 -32 -27 -61 -50 -65 -50
-39 0 -111 68 -162 153 -54 91 -54 105 -3 158 74 78 81 162 16 198 -25 14 -29
13 -63 -13 l-36 -27 0 -133 c0 -172 5 -199 36 -193 13 2 29 -1 34 -8 8 -10 -8
-28 -65 -75 -85 -70 -93 -69 -126 5 -16 34 -19 68 -19 220 0 223 -1 227 -49
223 -24 -2 -36 1 -36 10 0 11 142 140 156 141 3 1 16 -10 28 -23z m775 3 c44
-35 71 -86 137 -264 72 -191 92 -228 134 -235 15 -3 30 -10 32 -17 4 -12 -135
-123 -155 -123 -26 0 -72 80 -106 184 -6 18 -7 18 -26 1 -21 -19 -37 -23 -101
-24 -33 -1 -37 -4 -48 -41 -15 -52 -59 -101 -149 -168 -52 -38 -77 -51 -84
-44 -8 8 3 26 34 61 54 60 84 146 94 266 3 44 14 99 24 122 17 39 93 123 111
123 19 0 7 27 -16 38 -36 17 -63 15 -112 -7 -34 -16 -42 -17 -47 -6 -7 19 87
103 149 131 62 29 95 30 129 3z m-309 -217 c22 -33 24 -43 15 -66 -5 -15 -13
-59 -17 -98 l-6 -71 -25 28 c-21 25 -27 27 -44 16 -15 -9 -23 -9 -33 -1 -27
23 -27 49 0 82 33 40 65 102 65 128 0 31 17 24 45 -18z"/>
<path d="M427 3343 c-31 -24 -36 -34 -37 -69 0 -40 1 -42 49 -63 87 -37 121
-28 121 33 0 42 -22 85 -56 111 -27 20 -36 19 -77 -12z"/>
<path d="M991 3276 c-9 -22 -31 -129 -31 -148 0 -4 27 -8 59 -8 l60 0 -19 53
c-25 71 -49 127 -55 127 -3 0 -10 -11 -14 -24z"/>
<path d="M4451 3278 c-9 -23 -31 -131 -31 -150 0 -4 27 -8 60 -8 l60 0 -30 82
c-36 98 -46 111 -59 76z"/>
<path d="M1686 2332 c-3 -5 -23 -21 -46 -37 l-40 -28 -60 27 c-71 32 -175 44
-237 27 -52 -14 -165 -103 -215 -168 -41 -54 -62 -120 -53 -163 3 -16 24 -49
46 -73 21 -25 39 -50 39 -55 0 -6 -27 -33 -60 -62 -55 -48 -60 -55 -60 -93 0
-112 131 -197 284 -184 71 5 149 39 221 96 27 22 53 37 57 35 5 -3 17 -23 28
-45 19 -35 90 -99 112 -99 4 0 42 27 83 61 l74 60 60 -60 c32 -34 66 -61 74
-61 8 0 43 22 77 50 34 28 65 50 67 50 3 0 30 -22 60 -50 30 -27 60 -50 67
-50 13 0 229 171 242 191 3 6 -4 21 -16 34 l-22 23 28 18 c14 11 50 41 79 67
29 26 55 44 58 40 3 -4 8 -51 11 -103 4 -52 12 -112 18 -133 14 -46 68 -110
107 -126 28 -12 32 -10 143 79 62 51 114 96 116 101 2 5 -4 19 -12 31 -22 31
-21 33 22 59 20 13 62 47 93 77 l57 53 28 -26 29 -25 -69 -65 -69 -64 6 -46
c18 -130 194 -210 352 -160 71 22 161 81 209 136 97 113 88 214 -27 302 -20
15 -37 32 -37 36 0 5 32 43 71 85 79 85 82 97 32 156 -44 53 -103 73 -213 74
-104 1 -120 -5 -218 -88 -24 -20 -49 -36 -54 -36 -6 0 -27 18 -46 40 -37 44
-87 73 -141 84 -29 5 -40 1 -81 -34 -26 -22 -51 -40 -55 -40 -4 0 -30 20 -58
45 -29 25 -56 45 -60 45 -5 0 -32 -20 -60 -45 -56 -49 -68 -53 -88 -29 -18 22
-77 50 -121 58 -31 6 -42 2 -70 -21 -70 -60 -62 -60 -123 -8 -30 26 -60 45
-67 42 -7 -3 -41 -28 -76 -56 l-62 -51 -55 55 c-31 30 -61 55 -68 55 -6 -1
-24 -11 -38 -23 -15 -12 -47 -39 -72 -60 l-46 -38 -60 60 c-58 58 -83 72 -95
53z m1937 -107 c20 -9 37 -22 40 -28 6 -16 -135 -165 -151 -159 -6 2 -12 14
-12 28 0 13 -10 30 -22 38 -31 20 -104 31 -112 17 -14 -21 17 -52 128 -131
124 -87 176 -138 176 -173 0 -63 -108 -169 -210 -208 -112 -43 -250 -4 -274
77 -5 17 6 33 59 82 39 37 71 59 79 56 8 -3 12 -12 9 -20 -10 -25 38 -64 105
-84 35 -11 66 -20 68 -20 2 0 4 15 4 33 0 42 -43 84 -160 156 -115 72 -130 87
-130 130 0 70 145 217 227 230 50 9 132 -3 176 -24z m-2152 14 c19 -7 44 -21
56 -32 l22 -20 -72 -77 c-72 -77 -97 -89 -97 -44 0 30 -33 52 -93 60 -50 7
-57 0 -37 -37 6 -10 62 -55 125 -100 125 -88 175 -137 175 -172 0 -37 -53
-110 -109 -151 -99 -73 -190 -92 -284 -60 -45 15 -97 62 -97 88 0 7 29 41 64
74 45 43 69 60 81 56 9 -4 14 -13 10 -22 -10 -25 35 -61 103 -82 35 -11 66
-20 68 -20 2 0 4 15 4 34 0 28 -8 41 -45 74 -24 21 -75 57 -111 78 -90 52
-134 94 -134 128 0 58 59 133 159 205 39 27 52 31 111 31 37 0 82 -5 101 -11z
m275 -43 c17 -27 19 -57 22 -238 4 -238 2 -233 88 -175 l49 32 0 140 0 140
-35 -1 c-19 0 -38 4 -42 10 -3 5 30 40 75 77 92 76 102 77 136 6 19 -40 21
-61 21 -244 0 -207 5 -234 40 -213 8 5 18 6 22 4 20 -12 3 -35 -64 -88 l-73
-57 -27 30 c-15 17 -30 43 -33 58 -3 16 -9 41 -13 57 l-7 28 -108 -86 -107
-87 -23 25 c-39 42 -47 91 -47 282 0 99 -4 185 -9 192 -5 8 -22 12 -42 10 -53
-5 -42 15 45 86 87 71 96 71 132 12z m544 29 c12 -13 28 -44 34 -69 l11 -44
80 69 c65 56 85 68 104 63 40 -9 82 -44 97 -81 17 -39 16 -40 102 36 l63 54
26 -25 c14 -14 31 -46 37 -71 l11 -45 83 70 c89 75 97 77 156 35 35 -25 56
-73 56 -130 0 -114 -131 -253 -259 -273 -43 -7 -47 -15 -34 -62 4 -18 11 -23
29 -19 13 2 29 -1 34 -8 8 -10 -8 -29 -66 -76 l-77 -63 -24 30 c-36 46 -43 86
-43 276 0 97 -3 183 -6 192 -12 31 -74 16 -74 -18 0 -37 -49 -122 -94 -164
-53 -49 -110 -79 -165 -88 -43 -7 -47 -15 -34 -62 4 -18 11 -23 29 -19 13 2
28 -1 34 -8 7 -9 -10 -29 -66 -75 l-77 -64 -24 30 c-36 45 -43 86 -43 269 0
212 -1 217 -49 213 -24 -2 -36 1 -36 10 0 11 142 140 156 141 3 1 16 -10 29
-24z"/>
<path d="M2365 2079 c-28 -25 -35 -38 -35 -69 0 -35 3 -39 49 -59 85 -36 121
-25 121 37 0 54 -50 122 -89 122 -6 0 -26 -14 -46 -31z"/>
<path d="M2887 2083 c-31 -24 -36 -34 -37 -69 0 -40 1 -42 49 -63 85 -36 121
-25 121 37 0 53 -50 122 -88 122 -5 0 -25 -12 -45 -27z"/>
</g>
</svg>
